<svg xmlns="http://www.w3.org/2000/svg" width="340" height="200" viewBox="0 0 340 200"><style>* {
          font-family: 'Segoe UI', Ubuntu, "Helvetica Neue", Sans-Serif
        }</style><rect x="1" y="1" rx="5" ry="5" height="99%" width="99.41176470588235%" stroke="none" stroke-width="1" fill="none" stroke-opacity="1"></rect><text x="30" y="40" style="font-size: 22px; fill: #E53228;">Top Languages by Commit</text><g transform="translate(0,40)"><g transform="translate(40,0)"><rect y="18" width="14" height="14" fill="#178600" stroke="none" style="stroke-width: 1px;"></rect><rect y="43.2" width="14" height="14" fill="#3178c6" stroke="none" style="stroke-width: 1px;"></rect><rect y="68.4" width="14" height="14" fill="#336790" stroke="none" style="stroke-width: 1px;"></rect><rect y="93.60000000000002" width="14" height="14" fill="#c6538c" stroke="none" style="stroke-width: 1px;"></rect><rect y="118.80000000000001" width="14" height="14" fill="#6594b9" stroke="none" style="stroke-width: 1px;"></rect><text x="16.8" y="30" style="fill: #C9D1D9; font-size: 14px;">C#</text><text x="16.8" y="55.2" style="fill: #C9D1D9; font-size: 14px;">TypeScript</text><text x="16.8" y="80.4" style="fill: #C9D1D9; font-size: 14px;">PLpgSQL</text><text x="16.8" y="105.60000000000002" style="fill: #C9D1D9; font-size: 14px;">SCSS</text><text x="16.8" y="130.8" style="fill: #C9D1D9; font-size: 14px;">AutoHotkey</text></g><g transform="translate( 230, 80 )"><g class="arc"><path d="M3.67394039744206e-15,-60A60,60,0,0,1,21.4765710109024,56.02460974976681L12.527999756359733,32.68102235403064A35,35,0,0,0,2.1431318985078682e-15,-35Z" style="fill: #178600; stroke-width: 2px;" stroke="none"></path></g><g class="arc"><path d="M21.4765710109024,56.02460974976681A60,60,0,0,1,-58.89589280931768,11.457478352297354L-34.35593747210198,6.683529038840123A35,35,0,0,0,12.527999756359733,32.68102235403064Z" style="fill: #3178c6; stroke-width: 2px;" stroke="none"></path></g><g class="arc"><path d="M-58.89589280931768,11.457478352297354A60,60,0,0,1,-26.97134186605085,-53.5961446182896L-15.733282755196328,-31.264417694002265A35,35,0,0,0,-34.35593747210198,6.683529038840123Z" style="fill: #336790; stroke-width: 2px;" stroke="none"></path></g><g class="arc"><path d="M-26.97134186605085,-53.5961446182896A60,60,0,0,1,-7.845113573162268,-59.48490727087153L-4.576316251011323,-34.69952924134173A35,35,0,0,0,-15.733282755196328,-31.264417694002265Z" style="fill: #c6538c; stroke-width: 2px;" stroke="none"></path></g><g class="arc"><path d="M-7.845113573162268,-59.48490727087153A60,60,0,0,1,-6.431252637433369e-14,-60L-3.7515640385027985e-14,-35A35,35,0,0,0,-4.576316251011323,-34.69952924134173Z" style="fill: #6594b9; stroke-width: 2px;" stroke="none"></path></g></g></g></svg>