<svg xmlns="http://www.w3.org/2000/svg" width="340" height="200" viewBox="0 0 340 200"><style>* {
          font-family: 'Segoe UI', Ubuntu, "Helvetica Neue", Sans-Serif
        }</style><rect x="1" y="1" rx="5" ry="5" height="99%" width="99.41176470588235%" stroke="none" stroke-width="1" fill="none" stroke-opacity="1"></rect><text x="30" y="40" style="font-size: 22px; fill: #E53228;">Top Languages by Commit</text><g transform="translate(0,40)"><g transform="translate(40,0)"><rect y="18" width="14" height="14" fill="#178600" stroke="none" style="stroke-width: 1px;"></rect><rect y="43.2" width="14" height="14" fill="#3178c6" stroke="none" style="stroke-width: 1px;"></rect><rect y="68.4" width="14" height="14" fill="#336790" stroke="none" style="stroke-width: 1px;"></rect><rect y="93.60000000000002" width="14" height="14" fill="#c6538c" stroke="none" style="stroke-width: 1px;"></rect><rect y="118.80000000000001" width="14" height="14" fill="#6594b9" stroke="none" style="stroke-width: 1px;"></rect><text x="16.8" y="30" style="fill: #C9D1D9; font-size: 14px;">C#</text><text x="16.8" y="55.2" style="fill: #C9D1D9; font-size: 14px;">TypeScript</text><text x="16.8" y="80.4" style="fill: #C9D1D9; font-size: 14px;">PLpgSQL</text><text x="16.8" y="105.60000000000002" style="fill: #C9D1D9; font-size: 14px;">SCSS</text><text x="16.8" y="130.8" style="fill: #C9D1D9; font-size: 14px;">AutoHotkey</text></g><g transform="translate( 230, 80 )"><g class="arc"><path d="M3.67394039744206e-15,-60A60,60,0,0,1,23.84125894528573,55.059916199571475L13.907401051416675,32.11828444975003A35,35,0,0,0,2.1431318985078682e-15,-35Z" style="fill: #178600; stroke-width: 2px;" stroke="none"></path></g><g class="arc"><path d="M23.84125894528573,55.059916199571475A60,60,0,0,1,-59.64575710692436,6.510273353844876L-34.79335831237254,3.797659456409511A35,35,0,0,0,13.907401051416675,32.11828444975003Z" style="fill: #3178c6; stroke-width: 2px;" stroke="none"></path></g><g class="arc"><path d="M-59.64575710692436,6.510273353844876A60,60,0,0,1,-27.699374426871014,-53.22353479768141L-16.15796841567476,-31.047061965314157A35,35,0,0,0,-34.79335831237254,3.797659456409511Z" style="fill: #336790; stroke-width: 2px;" stroke="none"></path></g><g class="arc"><path d="M-27.699374426871014,-53.22353479768141A60,60,0,0,1,-8.073101188848474,-59.45439459951311L-4.709309026828277,-34.68173018304931A35,35,0,0,0,-16.15796841567476,-31.047061965314157Z" style="fill: #c6538c; stroke-width: 2px;" stroke="none"></path></g><g class="arc"><path d="M-8.073101188848474,-59.45439459951311A60,60,0,0,1,-1.1021821192326178e-14,-60L-6.429395695523604e-15,-35A35,35,0,0,0,-4.709309026828277,-34.68173018304931Z" style="fill: #6594b9; stroke-width: 2px;" stroke="none"></path></g></g></g></svg>