<svg xmlns="http://www.w3.org/2000/svg" width="340" height="200" viewBox="0 0 340 200"><style>* {
          font-family: 'Segoe UI', Ubuntu, "Helvetica Neue", Sans-Serif
        }</style><g class="gpsc-root"><rect x="1" y="1" rx="5" ry="5" height="99%" width="99.41176470588235%" stroke="none" stroke-width="1" fill="none" stroke-opacity="1"></rect><text x="30" y="40" class="gpsc-item" style="--gpsc-i: 0; font-size: 22px; fill: #E53228;">Top Languages by Commit</text><g transform="translate(0,40)"><g transform="translate(40,0)"><rect y="18" width="14" height="14" class="gpsc-item" style="--gpsc-i: 0; stroke-width: 1px;" fill="#178600" stroke="none"></rect><rect y="43.2" width="14" height="14" class="gpsc-item" style="--gpsc-i: 1; stroke-width: 1px;" fill="#336790" stroke="none"></rect><rect y="68.4" width="14" height="14" class="gpsc-item" style="--gpsc-i: 2; stroke-width: 1px;" fill="#3178c6" stroke="none"></rect><rect y="93.60000000000002" width="14" height="14" class="gpsc-item" style="--gpsc-i: 3; stroke-width: 1px;" fill="#c6538c" stroke="none"></rect><rect y="118.80000000000001" width="14" height="14" class="gpsc-item" style="--gpsc-i: 4; stroke-width: 1px;" fill="#6594b9" stroke="none"></rect><text x="16.8" y="30" class="gpsc-item" style="--gpsc-i: 0; fill: #C9D1D9; font-size: 14px;">C#</text><text x="16.8" y="55.2" class="gpsc-item" style="--gpsc-i: 1; fill: #C9D1D9; font-size: 14px;">PLpgSQL</text><text x="16.8" y="80.4" class="gpsc-item" style="--gpsc-i: 2; fill: #C9D1D9; font-size: 14px;">TypeScript</text><text x="16.8" y="105.60000000000002" class="gpsc-item" style="--gpsc-i: 3; fill: #C9D1D9; font-size: 14px;">SCSS</text><text x="16.8" y="130.8" class="gpsc-item" style="--gpsc-i: 4; fill: #C9D1D9; font-size: 14px;">AutoHotkey</text></g><g transform="translate( 230, 80 )"><g class="arc" style="--gpsc-i: 0;"><path d="M3.67394039744206e-15,-60A60,60,0,0,1,21.68225030888394,55.945330650045335L12.647979346848965,32.63477621252645A35,35,0,0,0,2.1431318985078682e-15,-35Z" style="fill: #178600; stroke-width: 2px;" stroke="none"></path></g><g class="arc" style="--gpsc-i: 1;"><path d="M21.68225030888394,55.945330650045335A60,60,0,0,1,-57.99799740173597,15.36985027214733L-33.832165151012646,8.965745992085942A35,35,0,0,0,12.647979346848965,32.63477621252645Z" style="fill: #336790; stroke-width: 2px;" stroke="none"></path></g><g class="arc" style="--gpsc-i: 2;"><path d="M-57.99799740173597,15.36985027214733A60,60,0,0,1,-26.34177301535897,-53.908357370701864L-15.366034258959399,-31.446541799576085A35,35,0,0,0,-33.832165151012646,8.965745992085942Z" style="fill: #3178c6; stroke-width: 2px;" stroke="none"></path></g><g class="arc" style="--gpsc-i: 3;"><path d="M-26.34177301535897,-53.908357370701864A60,60,0,0,1,-5.50299524810929,-59.747109079011395L-3.2100805613970858,-34.85248029608998A35,35,0,0,0,-15.366034258959399,-31.446541799576085Z" style="fill: #c6538c; stroke-width: 2px;" stroke="none"></path></g><g class="arc" style="--gpsc-i: 4;"><path d="M-5.50299524810929,-59.747109079011395A60,60,0,0,1,-1.1021821192326178e-14,-60L-6.429395695523604e-15,-35A35,35,0,0,0,-3.2100805613970858,-34.85248029608998Z" style="fill: #6594b9; stroke-width: 2px;" stroke="none"></path></g></g></g></g></svg>