<svg xmlns="http://www.w3.org/2000/svg" width="340" height="200" viewBox="0 0 340 200"><style>* {
          font-family: 'Segoe UI', Ubuntu, "Helvetica Neue", Sans-Serif
        }</style><rect x="1" y="1" rx="5" ry="5" height="99%" width="99.41176470588235%" stroke="none" stroke-width="1" fill="none" stroke-opacity="1"></rect><text x="30" y="40" style="font-size: 22px; fill: #E53228;">Top Languages by Commit</text><g transform="translate(0,40)"><g transform="translate(40,0)"><rect y="18" width="14" height="14" fill="#178600" stroke="none" style="stroke-width: 1px;"></rect><rect y="43.2" width="14" height="14" fill="#3178c6" stroke="none" style="stroke-width: 1px;"></rect><rect y="68.4" width="14" height="14" fill="#336790" stroke="none" style="stroke-width: 1px;"></rect><rect y="93.60000000000002" width="14" height="14" fill="#c6538c" stroke="none" style="stroke-width: 1px;"></rect><rect y="118.80000000000001" width="14" height="14" fill="#6594b9" stroke="none" style="stroke-width: 1px;"></rect><text x="16.8" y="30" style="fill: #C9D1D9; font-size: 14px;">C#</text><text x="16.8" y="55.2" style="fill: #C9D1D9; font-size: 14px;">TypeScript</text><text x="16.8" y="80.4" style="fill: #C9D1D9; font-size: 14px;">PLpgSQL</text><text x="16.8" y="105.60000000000002" style="fill: #C9D1D9; font-size: 14px;">SCSS</text><text x="16.8" y="130.8" style="fill: #C9D1D9; font-size: 14px;">AutoHotkey</text></g><g transform="translate( 230, 80 )"><g class="arc"><path d="M3.67394039744206e-15,-60A60,60,0,0,1,24.464498775462626,54.7858403208839L14.270957619019864,31.958406853848942A35,35,0,0,0,2.1431318985078682e-15,-35Z" style="fill: #178600; stroke-width: 2px;" stroke="none"></path></g><g class="arc"><path d="M24.464498775462626,54.7858403208839A60,60,0,0,1,-59.45571890318213,8.063342340852902L-34.682502693522906,4.703616365497526A35,35,0,0,0,14.270957619019864,31.958406853848942Z" style="fill: #3178c6; stroke-width: 2px;" stroke="none"></path></g><g class="arc"><path d="M-59.45571890318213,8.063342340852902A60,60,0,0,1,-27.1462461116781,-53.507768800840516L-15.835310231812224,-31.212865133823637A35,35,0,0,0,-34.682502693522906,4.703616365497526Z" style="fill: #336790; stroke-width: 2px;" stroke="none"></path></g><g class="arc"><path d="M-27.1462461116781,-53.507768800840516A60,60,0,0,1,-7.899751922846186,-59.47767580830212L-4.608188621660275,-34.69531088817624A35,35,0,0,0,-15.835310231812224,-31.212865133823637Z" style="fill: #c6538c; stroke-width: 2px;" stroke="none"></path></g><g class="arc"><path d="M-7.899751922846186,-59.47767580830212A60,60,0,0,1,-1.1021821192326178e-14,-60L-6.429395695523604e-15,-35A35,35,0,0,0,-4.608188621660275,-34.69531088817624Z" style="fill: #6594b9; stroke-width: 2px;" stroke="none"></path></g></g></g></svg>