<svg xmlns="http://www.w3.org/2000/svg" width="340" height="200" viewBox="0 0 340 200"><style>* {
          font-family: 'Segoe UI', Ubuntu, "Helvetica Neue", Sans-Serif
        }</style><g class="gpsc-root"><rect x="1" y="1" rx="5" ry="5" height="99%" width="99.41176470588235%" stroke="none" stroke-width="1" fill="none" stroke-opacity="1"></rect><text x="30" y="40" class="gpsc-item" style="--gpsc-i: 0; font-size: 22px; fill: #E53228;">Top Languages by Commit</text><g transform="translate(0,40)"><g transform="translate(40,0)"><rect y="18" width="14" height="14" class="gpsc-item" style="--gpsc-i: 0; stroke-width: 1px;" fill="#178600" stroke="none"></rect><rect y="43.2" width="14" height="14" class="gpsc-item" style="--gpsc-i: 1; stroke-width: 1px;" fill="#336790" stroke="none"></rect><rect y="68.4" width="14" height="14" class="gpsc-item" style="--gpsc-i: 2; stroke-width: 1px;" fill="#3178c6" stroke="none"></rect><rect y="93.60000000000002" width="14" height="14" class="gpsc-item" style="--gpsc-i: 3; stroke-width: 1px;" fill="#c6538c" stroke="none"></rect><rect y="118.80000000000001" width="14" height="14" class="gpsc-item" style="--gpsc-i: 4; stroke-width: 1px;" fill="#6594b9" stroke="none"></rect><text x="16.8" y="30" class="gpsc-item" style="--gpsc-i: 0; fill: #C9D1D9; font-size: 14px;">C#</text><text x="16.8" y="55.2" class="gpsc-item" style="--gpsc-i: 1; fill: #C9D1D9; font-size: 14px;">PLpgSQL</text><text x="16.8" y="80.4" class="gpsc-item" style="--gpsc-i: 2; fill: #C9D1D9; font-size: 14px;">TypeScript</text><text x="16.8" y="105.60000000000002" class="gpsc-item" style="--gpsc-i: 3; fill: #C9D1D9; font-size: 14px;">SCSS</text><text x="16.8" y="130.8" class="gpsc-item" style="--gpsc-i: 4; fill: #C9D1D9; font-size: 14px;">AutoHotkey</text></g><g transform="translate( 230, 80 )"><g class="arc" style="--gpsc-i: 0;"><path d="M3.67394039744206e-15,-60A60,60,0,0,1,20.89209812606394,56.24517966804725L12.187057240203965,32.80968813969423A35,35,0,0,0,2.1431318985078682e-15,-35Z" style="fill: #178600; stroke-width: 2px;" stroke="none"></path></g><g class="arc" style="--gpsc-i: 1;"><path d="M20.89209812606394,56.24517966804725A60,60,0,0,1,-58.37112850580553,13.885652917984705L-34.04982496171989,8.099964202157745A35,35,0,0,0,12.187057240203965,32.80968813969423Z" style="fill: #336790; stroke-width: 2px;" stroke="none"></path></g><g class="arc" style="--gpsc-i: 2;"><path d="M-58.37112850580553,13.885652917984705A60,60,0,0,1,-26.50807816040863,-53.826775792737834L-15.463045593571701,-31.398952545763734A35,35,0,0,0,-34.04982496171989,8.099964202157745Z" style="fill: #3178c6; stroke-width: 2px;" stroke="none"></path></g><g class="arc" style="--gpsc-i: 3;"><path d="M-26.50807816040863,-53.826775792737834A60,60,0,0,1,-5.540267846684078,-59.74366436859224L-3.231822910565712,-34.85047088167881A35,35,0,0,0,-15.463045593571701,-31.398952545763734Z" style="fill: #c6538c; stroke-width: 2px;" stroke="none"></path></g><g class="arc" style="--gpsc-i: 4;"><path d="M-5.540267846684078,-59.74366436859224A60,60,0,0,1,-1.1021821192326178e-14,-60L-6.429395695523604e-15,-35A35,35,0,0,0,-3.231822910565712,-34.85047088167881Z" style="fill: #6594b9; stroke-width: 2px;" stroke="none"></path></g></g></g></g></svg>