<svg xmlns="http://www.w3.org/2000/svg" width="340" height="200" viewBox="0 0 340 200"><style>* {
          font-family: 'Segoe UI', Ubuntu, "Helvetica Neue", Sans-Serif
        }</style><rect x="1" y="1" rx="5" ry="5" height="99%" width="99.41176470588235%" stroke="none" stroke-width="1" fill="none" stroke-opacity="1"></rect><text x="30" y="40" style="font-size: 22px; fill: #E53228;">Top Languages by Commit</text><g transform="translate(0,40)"><g transform="translate(40,0)"><rect y="18" width="14" height="14" fill="#178600" stroke="none" style="stroke-width: 1px;"></rect><rect y="43.2" width="14" height="14" fill="#3178c6" stroke="none" style="stroke-width: 1px;"></rect><rect y="68.4" width="14" height="14" fill="#336790" stroke="none" style="stroke-width: 1px;"></rect><rect y="93.60000000000002" width="14" height="14" fill="#c6538c" stroke="none" style="stroke-width: 1px;"></rect><rect y="118.80000000000001" width="14" height="14" fill="#6594b9" stroke="none" style="stroke-width: 1px;"></rect><text x="16.8" y="30" style="fill: #C9D1D9; font-size: 14px;">C#</text><text x="16.8" y="55.2" style="fill: #C9D1D9; font-size: 14px;">TypeScript</text><text x="16.8" y="80.4" style="fill: #C9D1D9; font-size: 14px;">PLpgSQL</text><text x="16.8" y="105.60000000000002" style="fill: #C9D1D9; font-size: 14px;">SCSS</text><text x="16.8" y="130.8" style="fill: #C9D1D9; font-size: 14px;">AutoHotkey</text></g><g transform="translate( 230, 80 )"><g class="arc"><path d="M3.67394039744206e-15,-60A60,60,0,0,1,21.54280641413084,55.999174027866545L12.566637074909657,32.66618484958882A35,35,0,0,0,2.1431318985078682e-15,-35Z" style="fill: #178600; stroke-width: 2px;" stroke="none"></path></g><g class="arc"><path d="M21.54280641413084,55.999174027866545A60,60,0,0,1,-58.88928982056813,11.491368257484844L-34.35208572866475,6.703298150199492A35,35,0,0,0,12.566637074909657,32.66618484958882Z" style="fill: #3178c6; stroke-width: 2px;" stroke="none"></path></g><g class="arc"><path d="M-58.88928982056813,11.491368257484844A60,60,0,0,1,-26.927950812027742,-53.61795841940473L-15.707971307016184,-31.277142411319424A35,35,0,0,0,-34.35208572866475,6.703298150199492Z" style="fill: #336790; stroke-width: 2px;" stroke="none"></path></g><g class="arc"><path d="M-26.927950812027742,-53.61795841940473A60,60,0,0,1,-7.831571533203098,-59.48669168242862L-4.568416727701807,-34.700570148083365A35,35,0,0,0,-15.707971307016184,-31.277142411319424Z" style="fill: #c6538c; stroke-width: 2px;" stroke="none"></path></g><g class="arc"><path d="M-7.831571533203098,-59.48669168242862A60,60,0,0,1,-1.1021821192326178e-14,-60L-6.429395695523604e-15,-35A35,35,0,0,0,-4.568416727701807,-34.700570148083365Z" style="fill: #6594b9; stroke-width: 2px;" stroke="none"></path></g></g></g></svg>