<svg xmlns="http://www.w3.org/2000/svg" width="340" height="200" viewBox="0 0 340 200"><style>* {
          font-family: 'Segoe UI', Ubuntu, "Helvetica Neue", Sans-Serif
        }</style><rect x="1" y="1" rx="5" ry="5" height="99%" width="99.41176470588235%" stroke="none" stroke-width="1" fill="none" stroke-opacity="1"></rect><text x="30" y="40" style="font-size: 22px; fill: #E53228;">Top Languages by Commit</text><g transform="translate(0,40)"><g transform="translate(40,0)"><rect y="18" width="14" height="14" fill="#178600" stroke="none" style="stroke-width: 1px;"></rect><rect y="43.2" width="14" height="14" fill="#3178c6" stroke="none" style="stroke-width: 1px;"></rect><rect y="68.4" width="14" height="14" fill="#336790" stroke="none" style="stroke-width: 1px;"></rect><rect y="93.60000000000002" width="14" height="14" fill="#c6538c" stroke="none" style="stroke-width: 1px;"></rect><rect y="118.80000000000001" width="14" height="14" fill="#6594b9" stroke="none" style="stroke-width: 1px;"></rect><text x="16.8" y="30" style="fill: #C9D1D9; font-size: 14px;">C#</text><text x="16.8" y="55.2" style="fill: #C9D1D9; font-size: 14px;">TypeScript</text><text x="16.8" y="80.4" style="fill: #C9D1D9; font-size: 14px;">PLpgSQL</text><text x="16.8" y="105.60000000000002" style="fill: #C9D1D9; font-size: 14px;">SCSS</text><text x="16.8" y="130.8" style="fill: #C9D1D9; font-size: 14px;">AutoHotkey</text></g><g transform="translate( 230, 80 )"><g class="arc"><path d="M3.67394039744206e-15,-60A60,60,0,0,1,24.0662951943155,54.96192714616243L14.038672196684042,32.06112416859475A35,35,0,0,0,2.1431318985078682e-15,-35Z" style="fill: #178600; stroke-width: 2px;" stroke="none"></path></g><g class="arc"><path d="M24.0662951943155,54.96192714616243A60,60,0,0,1,-59.6601898618315,6.376656306420909L-34.80177741940171,3.71971617874553A35,35,0,0,0,14.038672196684042,32.06112416859475Z" style="fill: #3178c6; stroke-width: 2px;" stroke="none"></path></g><g class="arc"><path d="M-59.6601898618315,6.376656306420909A60,60,0,0,1,-27.837169307151484,-53.1515945665319L-16.238348762505034,-31.00509683047694A35,35,0,0,0,-34.80177741940171,3.71971617874553Z" style="fill: #336790; stroke-width: 2px;" stroke="none"></path></g><g class="arc"><path d="M-27.837169307151484,-53.1515945665319A60,60,0,0,1,-8.116420116990954,-59.44849640221782L-4.734578401578056,-34.67828956796039A35,35,0,0,0,-16.238348762505034,-31.00509683047694Z" style="fill: #c6538c; stroke-width: 2px;" stroke="none"></path></g><g class="arc"><path d="M-8.116420116990954,-59.44849640221782A60,60,0,0,1,4.226888398968133e-14,-60L2.4656848993980778e-14,-35A35,35,0,0,0,-4.734578401578056,-34.67828956796039Z" style="fill: #6594b9; stroke-width: 2px;" stroke="none"></path></g></g></g></svg>